<?xml version="1.0" encoding="iso-8859-1"?>
<!-- Generator: Adobe Illustrator 19.0.0, SVG Export Plug-In . SVG Version: 6.00 Build 0)  -->
<svg version="1.1" id="Layer_1" xmlns="http://www.w3.org/2000/svg" xmlns:xlink="http://www.w3.org/1999/xlink" x="0px" y="0px"
	 viewBox="0 0 512 512" style="enable-background:new 0 0 512 512;" xml:space="preserve">
<g>
	<g>
		<path d="M331.536,81.698c-3.985-31.473-30.604-55.881-62.768-55.881c-2.617,0-5.287,0.18-8.163,0.555
			C248.809,9.979,229.712,0,209.511,0c-20.201,0-39.298,9.979-51.094,26.372c-2.877-0.375-5.546-0.555-8.163-0.555
			c-32.164,0-58.783,24.409-62.768,55.881H70.104l5.423,90.378l16.752,275.58L60.105,512h298.811l-32.173-64.345l15.333-253.784
			l3.23-52.233h46.648v206.967h59.941V81.698H331.536z M150.252,42.184c3.126,0,6.472,0.368,10.528,1.157l5.671,1.103l2.939-4.975
			c8.417-14.25,23.79-23.101,40.122-23.101c16.332,0,31.704,8.852,40.12,23.101l2.939,4.975l5.671-1.103
			c4.057-0.789,7.401-1.157,10.528-1.157c23.134,0,42.413,17.099,46.243,39.514H104.009
			C107.839,59.284,127.118,42.184,150.252,42.184z M332.43,495.632H86.589l19.048-38.097h207.745L332.43,495.632z M92.468,181.01
			c4.388,1.506,7.574,4.261,11.456,7.637c6.61,5.748,14.837,12.901,30.424,12.901c15.525,0,23.726-7.147,30.315-12.89
			c5.927-5.165,10.209-8.896,19.684-8.896c9.467,0,13.753,3.727,19.685,8.885c6.61,5.748,14.836,12.901,30.423,12.901
			c15.57,0,23.8-7.141,30.411-12.878c5.96-5.171,10.266-8.908,19.805-8.908c9.456,0,13.747,3.725,19.683,8.88
			c5.106,4.435,11.214,9.713,20.922,11.892l-14.54,240.633H108.281L92.468,181.01z M329.445,132.947l-3.147,50.891
			c-4.252-1.524-7.386-4.233-11.211-7.554c-6.614-5.743-14.843-12.89-30.414-12.89c-15.651,0-23.901,7.16-30.532,12.913
			c-5.936,5.151-10.225,8.873-19.684,8.873c-9.466,0-13.752-3.727-19.683-8.884c-6.611-5.748-14.838-12.902-30.425-12.902
			c-15.606,0-23.829,7.166-30.437,12.925c-5.903,5.145-10.168,8.861-19.563,8.861c-9.466,0-13.752-3.727-19.683-8.885
			c-5.507-4.789-12.154-10.539-23.228-12.329l-3.953-65.902h244.052L329.445,132.947z M435.527,332.237h-27.205V125.27h-62.019
			l1.632-27.204h87.592V332.237z"/>
	</g>
</g>
<g>
	<g>
		<rect x="127.81" y="234.2" width="21.786" height="16.368"/>
	</g>
</g>
<g>
	<g>
		<rect x="149.601" y="266.881" width="21.786" height="16.368"/>
	</g>
</g>
<g>
	<g>
		<rect x="182.282" y="234.2" width="21.786" height="16.368"/>
	</g>
</g>
<g>
	<g>
		<rect x="258.533" y="397.593" width="21.785" height="16.368"/>
	</g>
</g>
<g>
	<g>
		<rect x="225.852" y="375.813" width="21.786" height="16.368"/>
	</g>
</g>
<g>
	<g>
		<rect x="258.533" y="343.132" width="21.785" height="16.368"/>
	</g>
</g>
<g>
	<g>
		<rect x="258.533" y="245.09" width="21.785" height="16.368"/>
	</g>
</g>
<g>
	<g>
		<rect x="160.491" y="343.132" width="21.786" height="16.368"/>
	</g>
</g>
<g>
</g>
<g>
</g>
<g>
</g>
<g>
</g>
<g>
</g>
<g>
</g>
<g>
</g>
<g>
</g>
<g>
</g>
<g>
</g>
<g>
</g>
<g>
</g>
<g>
</g>
<g>
</g>
<g>
</g>
</svg>
